<svg width="273" height="164" viewBox="0 0 273 164" fill="none" xmlns="http://www.w3.org/2000/svg">
<rect x="0.5" y="0.803223" width="272" height="162" fill="white"/>
<g clip-path="url(#clip0_66_4737)">
<path d="M95.724 48.4472C94.0707 48.4472 92.764 47.9246 91.804 46.8792C90.8547 45.8339 90.38 44.4259 90.38 42.6552V42.5272C90.38 40.8312 90.8867 39.4339 91.9 38.3352C92.9133 37.2366 94.1987 36.6872 95.756 36.6872C97.004 36.6872 98.06 37.0126 98.924 37.6632C99.788 38.3139 100.279 39.2366 100.396 40.4312H99.02C98.732 38.6712 97.6493 37.7912 95.772 37.7912C94.588 37.7912 93.6333 38.2232 92.908 39.0872C92.1827 39.9406 91.82 41.0819 91.82 42.5112V42.6392C91.82 44.1006 92.1667 45.2472 92.86 46.0792C93.564 46.9006 94.5293 47.3112 95.756 47.3112C96.7053 47.3112 97.484 47.0766 98.092 46.6072C98.7 46.1272 99.0733 45.4286 99.212 44.5112H100.508C100.316 45.8019 99.7987 46.7832 98.956 47.4552C98.1133 48.1166 97.036 48.4472 95.724 48.4472ZM102.664 48.3032V35.9352H104.008V48.3032H102.664ZM106.857 48.3032V39.9352H108.185V48.3032H106.857ZM108.105 37.9352C107.935 38.1059 107.732 38.1912 107.497 38.1912C107.263 38.1912 107.055 38.1059 106.873 37.9352C106.703 37.7646 106.617 37.5566 106.617 37.3112C106.617 37.0659 106.703 36.8579 106.873 36.6872C107.055 36.5166 107.263 36.4312 107.497 36.4312C107.732 36.4312 107.935 36.5166 108.105 36.6872C108.287 36.8579 108.377 37.0659 108.377 37.3112C108.377 37.5566 108.287 37.7646 108.105 37.9352ZM114.427 48.4472C113.233 48.4472 112.257 48.0632 111.499 47.2952C110.753 46.5166 110.379 45.4872 110.379 44.2072V44.0792C110.379 42.8206 110.742 41.7912 111.467 40.9912C112.203 40.1912 113.147 39.7912 114.299 39.7912C115.366 39.7912 116.257 40.1379 116.971 40.8312C117.697 41.5139 118.059 42.5539 118.059 43.9512V44.3832H111.755C111.787 45.3432 112.027 46.0792 112.475 46.5912C112.934 47.0926 113.59 47.3432 114.443 47.3432C115.755 47.3432 116.497 46.8579 116.667 45.8872H117.995C117.857 46.7086 117.467 47.3432 116.827 47.7912C116.187 48.2286 115.387 48.4472 114.427 48.4472ZM111.803 43.3112H116.699C116.582 41.7006 115.782 40.8952 114.299 40.8952C113.627 40.8952 113.073 41.1139 112.635 41.5512C112.198 41.9779 111.921 42.5646 111.803 43.3112ZM120.197 48.3032V39.9352H121.525V41.2632C121.728 40.8366 122.064 40.4846 122.533 40.2072C123.002 39.9299 123.562 39.7912 124.213 39.7912C125.13 39.7912 125.85 40.0632 126.373 40.6072C126.896 41.1512 127.157 42.0046 127.157 43.1672V48.3032H125.829V43.0712C125.829 42.3352 125.669 41.7966 125.349 41.4552C125.029 41.1139 124.533 40.9432 123.861 40.9432C123.21 40.9432 122.656 41.1459 122.197 41.5512C121.749 41.9566 121.525 42.5166 121.525 43.2312V48.3032H120.197ZM132.404 48.4152C131.668 48.4152 131.108 48.2179 130.724 47.8232C130.34 47.4286 130.148 46.8899 130.148 46.2072V41.0552H128.948V39.9352H130.148V38.0312H131.476V39.9352H133.428V41.0552H131.476V46.0792C131.476 46.8899 131.822 47.2952 132.516 47.2952C132.9 47.2952 133.241 47.2366 133.54 47.1192V48.2392C133.209 48.3566 132.83 48.4152 132.404 48.4152ZM140.078 48.3032V36.8632H141.886L147.454 46.3192V36.8632H148.782V48.3032H147.182L141.406 38.4952V48.3032H140.078ZM153.756 48.4472C152.934 48.4472 152.262 48.2446 151.74 47.8392C151.228 47.4232 150.972 46.8046 150.972 45.9832C150.972 45.0872 151.366 44.4312 152.156 44.0152C152.956 43.5992 153.958 43.3912 155.164 43.3912H156.364V42.7832C156.364 42.1112 156.225 41.6312 155.948 41.3432C155.67 41.0446 155.212 40.8952 154.572 40.8952C153.42 40.8952 152.78 41.3966 152.652 42.3992H151.324C151.409 41.5032 151.761 40.8472 152.38 40.4312C152.998 40.0046 153.75 39.7912 154.636 39.7912C156.673 39.7912 157.692 40.7886 157.692 42.7832V48.3032H156.364V47.2472C155.724 48.0472 154.854 48.4472 153.756 48.4472ZM153.884 47.3912C154.609 47.3912 155.201 47.2152 155.66 46.8632C156.129 46.5006 156.364 46.0046 156.364 45.3752V44.3352H155.212C153.27 44.3352 152.3 44.8846 152.3 45.9832C152.3 46.9219 152.828 47.3912 153.884 47.3912ZM160.4 48.3032V39.9352H161.728V41.2152C161.931 40.7992 162.251 40.4579 162.688 40.1912C163.136 39.9246 163.648 39.7912 164.224 39.7912C165.451 39.7912 166.267 40.3139 166.672 41.3592C166.939 40.8472 167.339 40.4579 167.872 40.1912C168.416 39.9246 168.971 39.7912 169.536 39.7912C170.358 39.7912 171.03 40.0632 171.552 40.6072C172.086 41.1406 172.352 41.9779 172.352 43.1192V48.3032H171.024V43.0232C171.024 41.6366 170.432 40.9432 169.248 40.9432C168.651 40.9432 168.134 41.1406 167.696 41.5352C167.259 41.9299 167.04 42.4792 167.04 43.1832V48.3032H165.712V43.0232C165.712 41.6366 165.12 40.9432 163.936 40.9432C163.339 40.9432 162.822 41.1406 162.384 41.5352C161.947 41.9299 161.728 42.4792 161.728 43.1832V48.3032H160.4ZM178.487 48.4472C177.292 48.4472 176.316 48.0632 175.559 47.2952C174.812 46.5166 174.439 45.4872 174.439 44.2072V44.0792C174.439 42.8206 174.801 41.7912 175.527 40.9912C176.263 40.1912 177.207 39.7912 178.359 39.7912C179.425 39.7912 180.316 40.1379 181.031 40.8312C181.756 41.5139 182.119 42.5539 182.119 43.9512V44.3832H175.815C175.847 45.3432 176.087 46.0792 176.535 46.5912C176.993 47.0926 177.649 47.3432 178.503 47.3432C179.815 47.3432 180.556 46.8579 180.727 45.8872H182.055C181.916 46.7086 181.527 47.3432 180.887 47.7912C180.247 48.2286 179.447 48.4472 178.487 48.4472ZM175.863 43.3112H180.759C180.641 41.7006 179.841 40.8952 178.359 40.8952C177.687 40.8952 177.132 41.1139 176.695 41.5512C176.257 41.9779 175.98 42.5646 175.863 43.3112Z" fill="#374754"/>
</g>
<g clip-path="url(#clip1_66_4737)">
<path d="M226.989 107.805L232.344 111.356C230.606 113.902 226.45 118.271 219.264 118.271C210.341 118.271 203.695 111.403 203.695 102.666C203.695 93.3685 210.411 87.061 218.512 87.061C226.661 87.061 230.653 93.5084 231.944 96.9892L232.649 98.7648L211.656 107.408C213.253 110.539 215.742 112.127 219.264 112.127C222.786 112.127 225.228 110.398 226.989 107.805ZM210.529 102.176L224.547 96.382C223.772 94.4433 221.472 93.0652 218.724 93.0652C215.225 93.0652 210.364 96.1488 210.529 102.176Z" fill="#FF302F"/>
<path d="M193.574 71.1522H200.337V116.846H193.574V71.1519V71.1522Z" fill="#20B15A"/>
<path d="M182.913 88.2755H189.441V116.028C189.441 127.545 182.607 132.287 174.529 132.287C166.921 132.287 162.342 127.194 160.628 123.06L166.616 120.583C167.696 123.129 170.302 126.143 174.529 126.143C179.719 126.143 182.913 122.943 182.913 116.963V114.72H182.678C181.128 116.589 178.169 118.271 174.412 118.271C166.569 118.271 159.383 111.473 159.383 102.713C159.383 93.9053 166.569 87.0376 174.412 87.0376C178.146 87.0376 181.128 88.6962 182.678 90.5183H182.913V88.2758V88.2755ZM183.382 102.713C183.382 97.1993 179.695 93.1812 174.999 93.1812C170.255 93.1812 166.263 97.1993 166.263 102.713C166.263 108.155 170.255 112.103 174.999 112.103C179.696 112.127 183.382 108.155 183.382 102.713H183.382Z" fill="#3686F7"/>
<path d="M122.259 102.596C122.259 111.59 115.215 118.201 106.573 118.201C97.9316 118.201 90.8867 111.567 90.8867 102.596C90.8867 93.5554 97.9316 86.9678 106.573 86.9678C115.215 86.9678 122.259 93.5554 122.259 102.596ZM115.402 102.596C115.402 96.9896 111.316 93.1346 106.573 93.1346C101.83 93.1346 97.7435 96.9896 97.7435 102.596C97.7435 108.156 101.83 112.057 106.573 112.057C111.316 112.057 115.402 108.156 115.402 102.596Z" fill="#FF302F"/>
<path d="M156.517 102.666C156.517 111.66 149.472 118.271 140.831 118.271C132.189 118.271 125.145 111.66 125.145 102.666C125.145 93.6254 132.189 87.061 140.831 87.061C149.472 87.061 156.517 93.6022 156.517 102.666ZM149.636 102.666C149.636 97.0597 145.551 93.2047 140.807 93.2047C136.064 93.2047 131.978 97.0597 131.978 102.666C131.978 108.226 136.064 112.127 140.807 112.127C145.574 112.127 149.636 108.202 149.636 102.666Z" fill="#FFBA40"/>
<path d="M65.1021 111.426C55.2629 111.426 47.561 103.53 47.561 93.7419C47.561 83.954 55.2629 76.058 65.1021 76.058C70.4092 76.058 74.2836 78.137 77.1484 80.8003L81.8686 76.1049C77.8767 72.2972 72.5462 69.3999 65.1021 69.3999C51.6234 69.4003 40.2812 80.3334 40.2812 93.7419C40.2812 107.151 51.6234 118.084 65.1021 118.084C72.3818 118.084 77.8767 115.701 82.1739 111.263C86.5884 106.871 87.9504 100.703 87.9504 95.7043C87.9504 94.139 87.7627 92.5273 87.5512 91.3359H65.1021V97.8302H81.0936C80.6239 101.895 79.3325 104.675 77.4304 106.567C75.1291 108.88 71.4896 111.426 65.1021 111.426Z" fill="#3686F7"/>
</g>
<rect x="0.5" y="0.803223" width="272" height="162" stroke="#D8D8D8"/>
<defs>
<clipPath id="clip0_66_4737">
<rect width="94" height="23" fill="white" transform="translate(89.5 31.3032)"/>
</clipPath>
<clipPath id="clip1_66_4737">
<rect width="193" height="63" fill="white" transform="translate(40 69.3032)"/>
</clipPath>
</defs>
</svg>
